<?xml version="1.0" standalone="no"?>
<!DOCTYPE svg PUBLIC "-//W3C//DTD SVG 20010904//EN"
 "http://www.w3.org/TR/2001/REC-SVG-20010904/DTD/svg10.dtd">
<svg version="1.0" xmlns="http://www.w3.org/2000/svg"
 width="500.000000pt" height="500.000000pt" viewBox="0 0 500.000000 500.000000"
 preserveAspectRatio="xMidYMid meet">
<metadata>
Created by potrace 1.14, written by Peter Selinger 2001-2017
</metadata>
<g transform="translate(0.000000,500.000000) scale(0.100000,-0.100000)"
fill="#000000" stroke="none">
<path d="M935 3680 c-1 -3 -15 -36 -30 -75 -14 -38 -32 -86 -40 -105 -27 -70
-448 -1196 -462 -1235 -7 -22 -17 -47 -20 -55 -3 -8 -7 -17 -8 -20 -1 -3 -4
-12 -8 -20 -3 -8 -42 -112 -86 -231 -44 -118 -84 -226 -90 -240 -15 -36 -141
-376 -141 -381 0 -2 208 -3 462 -3 l461 0 23 70 c12 39 44 143 70 233 41 142
49 162 68 163 150 5 740 -1 746 -7 5 -5 37 -108 71 -229 34 -121 66 -222 70
-225 4 -3 605 -5 1336 -4 979 0 1338 3 1368 12 87 25 140 78 170 167 14 43 17
103 17 455 0 223 -3 424 -6 447 -17 108 -74 177 -173 208 -50 16 -112 18 -582
19 -476 1 -529 3 -553 18 -14 9 -27 27 -30 40 -2 13 -3 182 -3 375 1 437 -18
398 186 398 193 0 179 24 179 -300 l0 -252 486 0 486 -1 -4 297 c-4 322 -6
331 -65 401 -31 37 -98 71 -158 78 -22 3 -449 6 -950 6 -838 0 -914 -1 -960
-17 -57 -20 -79 -37 -117 -87 -50 -68 -52 -85 -53 -520 0 -223 3 -424 7 -448
21 -117 91 -186 209 -208 24 -4 276 -8 559 -9 383 -1 521 -4 537 -13 14 -8 25
-26 29 -49 12 -62 8 -715 -5 -746 -15 -39 -40 -45 -183 -43 -184 2 -171 -20
-173 298 l-1 253 -449 1 -450 1 -277 739 c-152 406 -286 764 -297 794 l-20 55
-572 0 c-314 0 -572 -2 -574 -5z m659 -875 c43 -148 79 -279 82 -290 2 -11 35
-128 72 -260 l68 -240 -314 -3 c-173 -1 -317 -1 -319 1 -2 2 5 33 16 68 11 35
44 150 75 254 30 105 86 298 124 430 39 132 78 267 88 300 15 52 18 57 24 35
4 -14 42 -146 84 -295z"/>
</g>
</svg>
