<svg width="500" height="500" viewBox="0 0 500 500" fill="none" xmlns="http://www.w3.org/2000/svg">
<path fill-rule="evenodd" clip-rule="evenodd" d="M105.132 391.843V155.512H45.4336V382.214C45.4336 387.505 49.7716 391.854 55.0726 391.854L105.132 391.843Z" stroke="#6DC8C2" stroke-width="5" stroke-miterlimit="2.6131" stroke-linecap="round" stroke-linejoin="round"/>
<path fill-rule="evenodd" clip-rule="evenodd" d="M104.777 155.512V391.843C218.569 391.813 337.845 391.701 451.556 391.701C452.589 391.701 453.533 391.285 454.221 390.616L454.252 390.586C454.921 389.897 455.336 388.954 455.336 387.91C455.336 310.252 454.971 233.201 454.971 155.512H104.777V155.512Z" stroke="#6DC8C2" stroke-width="5" stroke-miterlimit="2.6131" stroke-linecap="round" stroke-linejoin="round"/>
<path fill-rule="evenodd" clip-rule="evenodd" d="M50.724 88.859H449.276C463.424 88.859 475 100.434 475 114.593V247.106V274.118V389.197C475 395.218 472.537 400.691 468.563 404.664L468.523 404.705C464.549 408.678 459.077 411.141 453.056 411.141H388.533H369.803H50.724C36.585 411.141 25 399.566 25 385.417V114.594C25 100.435 36.575 88.859 50.724 88.859Z" stroke="#6DC8C2" stroke-width="5" stroke-miterlimit="2.6131" stroke-linecap="round" stroke-linejoin="round"/>
<path fill-rule="evenodd" clip-rule="evenodd" d="M145.311 193.956H238.518C240.758 193.956 242.602 195.79 242.602 198.03V261.864C242.602 264.114 240.757 265.949 238.518 265.949H145.311C143.071 265.949 141.227 264.114 141.227 261.864V198.03C141.226 195.79 143.07 193.956 145.311 193.956Z" stroke="#6DC8C2" stroke-width="5" stroke-miterlimit="2.6131" stroke-linecap="round" stroke-linejoin="round"/>
<path fill-rule="evenodd" clip-rule="evenodd" d="M75.2828 204.608C81.3738 204.608 86.3508 199.641 86.3508 193.54C86.3508 187.448 81.3738 182.472 75.2828 182.472C69.1808 182.472 64.2148 187.449 64.2148 193.54C64.2148 199.642 69.1808 204.608 75.2828 204.608Z" fill="#6DC8C2"/>
<path fill-rule="evenodd" clip-rule="evenodd" d="M75.2828 244.685C81.3738 244.685 86.3508 239.708 86.3508 233.617C86.3508 227.515 81.3738 222.549 75.2828 222.549C69.1808 222.549 64.2148 227.516 64.2148 233.617C64.2148 239.708 69.1808 244.685 75.2828 244.685Z" fill="#6DC8C2"/>
<path fill-rule="evenodd" clip-rule="evenodd" d="M75.2828 284.74C81.3738 284.74 86.3508 279.773 86.3508 273.672C86.3508 267.581 81.3738 262.614 75.2828 262.614C69.1808 262.614 64.2148 267.581 64.2148 273.672C64.2148 279.773 69.1808 284.74 75.2828 284.74Z" fill="#6DC8C2"/>
<path fill-rule="evenodd" clip-rule="evenodd" d="M75.2828 324.816C81.3738 324.816 86.3508 319.839 86.3508 313.748C86.3508 307.646 81.3738 302.68 75.2828 302.68C69.1808 302.68 64.2148 307.647 64.2148 313.748C64.2148 319.84 69.1808 324.816 75.2828 324.816Z" fill="#6DC8C2"/>
<path fill-rule="evenodd" clip-rule="evenodd" d="M75.2828 364.872C81.3738 364.872 86.3508 359.905 86.3508 353.804C86.3508 347.713 81.3738 342.746 75.2828 342.746C69.1808 342.746 64.2148 347.713 64.2148 353.804C64.2148 359.905 69.1808 364.872 75.2828 364.872Z" fill="#6DC8C2"/>
<path fill-rule="evenodd" clip-rule="evenodd" d="M172.078 363.575C189.076 363.575 202.941 349.709 202.941 332.721C202.941 315.724 189.076 301.868 172.078 301.868C155.091 301.868 141.225 315.723 141.225 332.721C141.225 349.709 155.09 363.575 172.078 363.575Z" stroke="#6DC8C2" stroke-width="5" stroke-miterlimit="2.6131" stroke-linecap="round" stroke-linejoin="round"/>
<path fill-rule="evenodd" clip-rule="evenodd" d="M284.755 363.575C301.752 363.575 315.608 349.709 315.608 332.721C315.608 315.724 301.753 301.868 284.755 301.868C267.768 301.868 253.902 315.723 253.902 332.721C253.902 349.709 267.768 363.575 284.755 363.575Z" stroke="#6DC8C2" stroke-width="5" stroke-miterlimit="2.6131" stroke-linecap="round" stroke-linejoin="round"/>
<path fill-rule="evenodd" clip-rule="evenodd" d="M397.433 363.575C414.43 363.575 428.295 349.709 428.295 332.721C428.295 315.724 414.43 301.868 397.433 301.868C380.446 301.868 366.58 315.723 366.58 332.721C366.58 349.709 380.445 363.575 397.433 363.575Z" stroke="#6DC8C2" stroke-width="5" stroke-miterlimit="2.6131" stroke-linecap="round" stroke-linejoin="round"/>
<path fill-rule="evenodd" clip-rule="evenodd" d="M353.799 110.793C359.829 110.793 364.725 115.679 364.725 121.709C364.725 127.739 359.829 132.625 353.799 132.625C347.778 132.625 342.883 127.739 342.883 121.709C342.883 115.679 347.778 110.793 353.799 110.793Z" fill="#6DC8C2"/>
<path fill-rule="evenodd" clip-rule="evenodd" d="M395.709 110.793C401.74 110.793 406.625 115.679 406.625 121.709C406.625 127.739 401.74 132.625 395.709 132.625C389.679 132.625 384.783 127.739 384.783 121.709C384.783 115.679 389.679 110.793 395.709 110.793Z" fill="#6DC8C2"/>
<path d="M437.609 132.625C443.638 132.625 448.525 127.738 448.525 121.709C448.525 115.68 443.638 110.793 437.609 110.793C431.581 110.793 426.693 115.68 426.693 121.709C426.693 127.738 431.581 132.625 437.609 132.625Z" fill="#6DC8C2"/>
<path d="M267.596 193.956H428.295" stroke="#6DC8C2" stroke-width="5" stroke-miterlimit="2.6131" stroke-linecap="round" stroke-linejoin="round"/>
<path d="M267.596 229.947H428.295" stroke="#6DC8C2" stroke-width="5" stroke-miterlimit="2.6131" stroke-linecap="round" stroke-linejoin="round"/>
<path d="M267.596 265.938H428.295" stroke="#6DC8C2" stroke-width="5" stroke-miterlimit="2.6131" stroke-linecap="round" stroke-linejoin="round"/>
</svg>
